# xmcd CD database file
#
# Track frame offsets:
#	150
#	13930
#	29806
#	41581
#	54301
#	73112
#	87001
#	105418
#	121047
#	136933
#	153990
#	170845
#	186525
#
# Disc length: 2669 seconds
#
# Revision: 2
# Processed by: cddbd v1.5.1PL0 Copyright (c) Steve Scherf et al.
# Submitted via: CDex 1.51
#
DISCID=b00a6b0d
DTITLE=Annett Louisan - Bohème
DYEAR=2004
DGENRE=Easy Listening
TTITLE0=Das Spiel
TTITLE1=Die Lüge
TTITLE2=Die Dinge
TTITLE3=Das Gefühl
TTITLE4=Daddy
TTITLE5=Die Katze
TTITLE6=Der Schöne
TTITLE7=Die Gelegenheit
TTITLE8=Der Blender
TTITLE9=Die Trägheit
TTITLE10=Die Formel
TTITLE11=Das Liebeslied
TTITLE12=Das Spiel (Radiomix)
EXTD=YEAR: 2004
EXTT0=
EXTT1=
EXTT2=
EXTT3=
EXTT4=
EXTT5=
EXTT6=
EXTT7=
EXTT8=
EXTT9=
EXTT10=
EXTT11=
EXTT12=
PLAYORDER=
